<svg xmlns="http://www.w3.org/2000/svg" viewBox="0 0 512 512" role="img" aria-label="DRESS CODE">
  <!-- Couleur de marque recopiee depuis design/tokens/tokens.css : un
       fichier SVG ne lit pas les variables CSS du document. C'est le
       seul endroit du projet ou une couleur est ecrite en dur ; la
       regenerer avec la charte si la couleur de marque change. -->
  <rect width="512" height="512" rx="114" fill="#5452b4"/>
  <!-- Cintre « checkroom » de Material Symbols Rounded (Apache 2.0),
       le meme trace que dans l'application. -->
  <path fill="#ffffff" transform="translate(41.2 476.4) scale(0.4475)"
        d="M200-220h560L480-443 200-220Zm206-472q-3 8-10 13.5t-17 5.5q-13 0-21.5-8.5T349-703v-6q0-3 2-6 17-38 52-61.5t77-23.5q58 0 99 40.5t41 98.5q0 49-31 86.5T510-523v28l358 281q6 5 9 11t3 13q0 13-8.5 21.5T850-160H110q-13 0-21.5-8.5T80-190q0-7 3-13t9-11l358-281v-55q0-12 8.5-21t20.5-9q34 0 57.5-23.5T560-661q0-33-23.5-56T480-740q-24 0-44 13t-30 35Z"/>
</svg>
